<?xml version="1.0" standalone="no"?>
<!DOCTYPE svg PUBLIC "-//W3C//DTD SVG 20010904//EN"
 "http://www.w3.org/TR/2001/REC-SVG-20010904/DTD/svg10.dtd">
<svg version="1.0" xmlns="http://www.w3.org/2000/svg"
 width="84.000000pt" height="84.000000pt" viewBox="0 0 84.000000 84.000000"
 preserveAspectRatio="xMidYMid meet">
<metadata>
Created by potrace 1.14, written by Peter Selinger 2001-2017
</metadata>
<g transform="translate(0.000000,84.000000) scale(0.100000,-0.100000)"
fill="#000000" stroke="none">
<path d="M186 625 c-57 -20 -78 -46 -83 -102 -7 -67 24 -104 111 -133 70 -23
100 -48 90 -74 -14 -36 -94 -36 -94 1 0 15 2 14 -62 17 -43 2 -48 0 -48 -20 0
-32 45 -81 86 -94 48 -16 116 -15 150 3 47 24 67 53 72 105 4 43 1 51 -25 78
-17 16 -60 40 -97 52 -78 28 -99 54 -69 84 16 15 24 17 46 9 15 -6 30 -18 33
-26 5 -11 21 -15 61 -15 52 0 54 1 48 23 -10 34 -39 71 -66 84 -41 19 -111 23
-153 8z"/>
<path d="M480 618 c-1 -24 -1 -333 -1 -370 l1 -38 125 0 c76 0 125 4 126 10 7
67 9 65 -74 68 l-77 3 0 47 0 48 63 1 c34 1 65 2 69 2 9 1 5 65 -5 72 -4 3
-35 5 -67 3 l-60 -2 0 44 0 44 75 0 c68 0 75 2 76 20 1 11 2 28 3 38 1 15 -12
17 -126 20 -99 2 -128 0 -128 -10z"/>
</g>
</svg>
